<svg width="24" height="24" viewBox="0 0 24 24" fill="none" xmlns="http://www.w3.org/2000/svg">
<path d="M23.745 9.98573L18.4859 15.3657L19.7278 22.9642C19.7819 23.2965 19.6518 23.6323 19.3918 23.8308C19.2449 23.9433 19.0701 24 18.8954 24C18.7611 24 18.626 23.9663 18.5028 23.8981L12 20.3106L5.49809 23.8972C5.2144 24.0549 4.86909 24.0292 4.60904 23.8299C4.349 23.6314 4.21898 23.2956 4.27302 22.9634L5.51497 15.3648L0.255017 9.98573C0.0253689 9.75005 -0.0582162 9.39741 0.0414105 9.07756C0.141037 8.7577 0.405302 8.5229 0.723601 8.47417L7.99213 7.36664L11.2427 0.453867C11.5272 -0.151289 12.4728 -0.151289 12.7573 0.453867L16.0079 7.36664L23.2764 8.47417C23.5947 8.5229 23.859 8.75681 23.9586 9.07756C24.0582 9.3983 23.9746 9.74916 23.745 9.98573Z" fill="#050fe6"/>
</svg>
