<svg width="24" height="24" viewBox="0 0 24 24" fill="none" xmlns="http://www.w3.org/2000/svg">
<path d="M6.9375 13.125H3.5625C3.25184 13.125 3 13.4188 3 13.7812V20.3438C3 20.7062 3.25184 21 3.5625 21H6.9375C7.24816 21 7.5 20.7062 7.5 20.3438V13.7812C7.5 13.4188 7.24816 13.125 6.9375 13.125Z" fill="#00daf3"/>
<path d="M20.2969 7.5H16.0781C15.6898 7.5 15.375 7.80221 15.375 8.175V20.325C15.375 20.6978 15.6898 21 16.0781 21H20.2969C20.6852 21 21 20.6978 21 20.325V8.175C21 7.80221 20.6852 7.5 20.2969 7.5Z" fill="#00daf3"/>
<path d="M13.5469 3H9.32812C8.9398 3 8.625 3.28782 8.625 3.64286V20.3571C8.625 20.7122 8.9398 21 9.32812 21H13.5469C13.9352 21 14.25 20.7122 14.25 20.3571V3.64286C14.25 3.28782 13.9352 3 13.5469 3Z" fill="#00daf3"/>
</svg>
