<svg width="110" height="36" viewBox="0 0 110 36" fill="none" xmlns="http://www.w3.org/2000/svg">
<path fill-rule="evenodd" clip-rule="evenodd" d="M41.3751 15.7944C41.3751 12.3754 43.6636 9.98886 47.8272 9.98886C50.364 9.98886 52.443 10.8714 53.5693 11.736C53.8681 11.9463 53.9845 12.36 53.8451 12.7162L52.9282 14.8039C52.7587 15.1447 52.3272 15.101 52.1066 14.9779C51.3042 14.5351 49.9903 13.7878 48.7978 13.6495C48.5013 13.615 48.1911 13.5971 47.877 13.6045C46.8126 13.6301 45.9248 14.0325 45.6104 14.9164C45.547 15.092 45.5129 15.2674 45.5097 15.4416C45.4821 16.6063 46.9684 17.0264 48.7705 17.3616C52.1234 17.9872 54.6573 19.0574 54.6573 22.8125C54.6573 26.0018 52.3136 28.885 47.7641 28.7966C44.7556 28.7306 42.6217 27.6259 41.4775 26.5497C41.4389 26.5137 41.0032 26.0304 41.2361 25.4512C41.5037 24.7036 41.9531 23.8453 42.3075 23.3949C42.5047 23.1021 43.0244 23.0557 43.2934 23.2389C44.2364 23.8768 45.775 24.8988 47.5756 24.9649L47.9932 24.9678C49.6022 24.9258 50.5755 24.2626 50.5547 23.1429C50.537 22.1567 49.2617 21.5817 47.2459 21.1646C44.0061 20.4998 41.4005 19.3382 41.4005 15.7916L41.3751 15.7944ZM70.8267 20.6588C68.5423 20.6918 66.4481 21.3716 66.3874 23.3153C66.3874 24.8566 67.5358 25.6145 69.1499 25.5155C70.6967 25.3535 71.8769 24.6227 72.3967 23.6543C72.5897 23.2941 72.6174 21.9509 72.6062 21.3761C72.6035 21.2559 72.3816 21.0221 72.2837 20.9783C71.7984 20.7563 71.4385 20.6872 70.8264 20.6603L70.8267 20.6588ZM63.2257 12.8304C64.2942 11.7903 66.3966 10.1709 69.7883 10.2565C74.2414 10.357 76.5947 12.6309 76.8138 18.0564C76.9034 20.2988 76.7546 26.5541 76.7163 28.112C76.734 28.2184 76.7028 28.3276 76.6328 28.4042C76.598 28.4421 76.5555 28.4702 76.5089 28.4862C76.4623 28.5022 76.4129 28.5056 76.3648 28.4962L73.1579 28.5038C72.7651 28.4828 72.7195 28.2712 72.714 28.0478L72.6906 27.1202C72.6865 26.9342 72.5253 26.9402 72.4837 26.9702C71.4387 28.171 69.7266 28.7714 67.9066 28.7714C65.1408 28.7714 62.3838 27.0005 62.3919 23.4929C62.4002 19.9013 64.7397 18.129 67.3096 17.7116C68.9558 17.4445 70.8113 17.6816 72.2149 18.2895C72.3045 18.3284 72.4879 18.2715 72.4906 18.1333C72.496 17.6757 72.4767 16.8037 72.3942 16.3893C72.1873 15.3358 71.3808 14.4877 69.6851 14.2582C69.3363 14.2108 68.984 14.2006 68.6332 14.2282C67.2848 14.3436 65.6634 15.4888 64.9907 15.9165C64.8321 16.017 64.5855 15.9435 64.5054 15.831C64.1138 15.279 63.1268 13.6666 63.0509 13.4086C62.9749 13.1506 63.0826 12.9358 63.2205 12.8007L63.2257 12.8304ZM78.2559 19.4999C78.2284 14.49 81.435 10.2637 86.6423 10.2247C89.8905 10.2023 92.2507 11.805 92.6671 12.5615C92.7498 12.7386 92.7083 12.8872 92.6491 13.0659C92.2281 13.9595 91.7382 14.8111 91.1849 15.6114C90.9741 15.9054 90.7438 15.6534 90.4791 15.4612C89.7414 14.9254 88.338 14.2708 86.9581 14.2708C84.4545 14.2708 82.5877 16.1408 82.6098 19.5795C82.629 22.8814 84.4021 24.6929 86.9662 24.7574C88.2996 24.7934 89.5926 23.9591 90.275 23.2762C90.4928 23.0692 90.719 23.1711 90.9686 23.3842C91.4579 23.929 92.1597 24.7696 92.5498 25.3351C92.8049 25.6565 92.6148 25.9717 92.5224 26.0978C91.4662 27.5534 89.4259 28.7767 86.7264 28.7932C81.074 28.8381 78.2699 24.5098 78.2435 19.4819L78.2559 19.4999ZM105.224 28.5712C105.489 28.5501 108.32 28.1236 109.19 27.9076C109.405 27.8536 109.483 27.6571 109.364 27.4605L106.266 22.4026L103.322 18.2948C103.22 18.1446 103.226 17.9946 103.336 17.8746L108.721 11.997C109.207 11.4267 108.914 11.1792 108.503 11.0454C107.707 10.7874 106.419 10.4647 105.687 10.295C105.378 10.2244 105.006 10.25 104.722 10.5501L98.5039 17.2667C98.297 17.4916 98.1785 17.4419 98.1772 17.1194L98.0436 2.70374C98.0382 2.47851 97.7901 2.30895 97.6507 2.30175L94.4039 2.29419C94.1985 2.33439 94.0364 2.50659 93.9944 2.72942C93.8291 5.44139 94.0635 25.3501 94.1627 28.1359C94.1652 28.3306 94.3041 28.4911 94.4826 28.5051C95.1954 28.55 96.9586 28.5471 97.7831 28.5306C98.1882 28.5306 98.2381 28.22 98.2381 28.22L98.2987 22.8767C98.2987 22.8767 98.3401 22.6397 98.4092 22.5767L99.8457 20.9375C99.9285 20.8505 100.058 20.8567 100.141 20.9795C100.548 21.5769 101.708 23.5191 102.784 25.2539L104.759 28.3618C104.908 28.593 105.082 28.6021 105.214 28.5975L105.224 28.5712Z" fill="#ADADAD"/>
<path fill-rule="evenodd" clip-rule="evenodd" d="M57.0824 28.5698L60.0576 28.5758C60.1681 28.5833 60.2768 28.5419 60.3598 28.4607C60.4005 28.4209 60.4335 28.3724 60.4569 28.3182C60.4803 28.264 60.4936 28.2051 60.496 28.145C60.6752 24.2399 60.5978 5.64742 60.4848 2.71321C60.4753 2.45798 60.3747 2.36342 60.2162 2.34098C59.4992 2.23586 57.4561 2.26142 56.8012 2.4461C56.6804 2.4737 56.5937 2.58937 56.5932 2.72365C56.4332 10.2908 56.5407 27.7369 56.5753 28.0671C56.6099 28.3974 56.7681 28.5579 57.0812 28.5699L57.0824 28.5698Z" fill="#ADADAD"/>
<path fill-rule="evenodd" clip-rule="evenodd" d="M8.66797 22.9653C8.66797 20.8791 10.1175 19.1997 11.918 19.1997C13.7185 19.1997 15.168 20.8791 15.168 22.9653V32.234C15.168 34.32 13.7185 35.9995 11.918 35.9995C10.1175 35.9995 8.66797 34.32 8.66797 32.234V22.9653Z" fill="#ADADAD"/>
<path fill-rule="evenodd" clip-rule="evenodd" d="M20.7354 26.3996C18.8522 26.3996 17.3359 24.794 17.3359 22.7997C17.3359 20.8053 18.8521 19.1997 20.7354 19.1997H29.1033C30.9866 19.1997 32.5028 20.8053 32.5028 22.7997C32.5028 24.794 30.9867 26.3996 29.1033 26.3996H20.7354Z" fill="#ADADAD"/>
<path fill-rule="evenodd" clip-rule="evenodd" d="M17.3359 3.76556C17.3359 1.67938 18.7854 0 20.5859 0C22.3864 0 23.8359 1.67938 23.8359 3.76556V13.0342C23.8359 15.1204 22.3864 16.7998 20.5859 16.7998C18.7854 16.7998 17.3359 15.1204 17.3359 13.0342V3.76556Z" fill="#ADADAD"/>
<path fill-rule="evenodd" clip-rule="evenodd" d="M3.3995 16.8C1.51612 16.8 0 15.1944 0 13.2001C0 11.2057 1.51612 9.6001 3.3995 9.6001H11.7672C13.6505 9.6001 15.1667 11.2057 15.1667 13.2001C15.1667 15.1944 13.6505 16.8 11.7672 16.8H3.3995Z" fill="#ADADAD"/>
<path fill-rule="evenodd" clip-rule="evenodd" d="M17.3359 32.4003C17.3359 34.3946 18.7854 36.0002 20.5859 36.0002C22.3864 36.0002 23.8359 34.3946 23.8359 32.4003C23.8359 30.4059 22.3864 28.8003 20.5859 28.8003H17.3359V32.4003Z" fill="#ADADAD"/>
<path fill-rule="evenodd" clip-rule="evenodd" d="M29.25 16.8H26V13.2001C26 11.2057 27.4495 9.6001 29.25 9.6001C31.0505 9.6001 32.5 11.2057 32.5 13.2001C32.5 15.1944 31.0505 16.8 29.25 16.8Z" fill="#ADADAD"/>
<path fill-rule="evenodd" clip-rule="evenodd" d="M3.25 19.1997H6.5V22.7997C6.5 24.794 5.0505 26.3996 3.25 26.3996C1.4495 26.3996 0 24.794 0 22.7997C0 20.8053 1.4495 19.1997 3.25 19.1997Z" fill="#ADADAD"/>
<path fill-rule="evenodd" clip-rule="evenodd" d="M15.168 4.15562V7.75558H11.918C10.1175 7.75558 8.66797 6.15 8.66797 4.15562C8.66797 2.16125 10.1175 0.555664 11.918 0.555664C13.7185 0.555664 15.168 2.16125 15.168 4.15562Z" fill="#ADADAD"/>
</svg>
