<svg width="102" height="36" viewBox="0 0 102 36" fill="none" xmlns="http://www.w3.org/2000/svg">
<path d="M13.8216 20.669L8.47322 15.4827C7.60357 14.7234 7.45863 13.9033 8.42249 12.9921L12.046 9.38532L16.5972 4.35096L13.0679 0L0.602896 12.7036C-0.281247 13.6148 -0.165294 14.9436 0.769578 15.8928L11.1039 26.1969L13.9882 23.3114C15.0753 22.1724 15.0391 21.7624 13.894 20.6538L13.8216 20.669Z" fill="#ADADAD"/>
<path d="M22.9771 15.7791L17.1649 10.1069L14.2299 13.0304C13.3457 13.8656 13.4037 14.587 14.2879 15.4071L19.8536 20.7679C20.6943 21.5728 20.7667 22.3245 19.8971 23.1826L14.2734 28.8776L11.4688 31.8997L15.2082 36.0001C15.4546 35.8634 15.5416 35.8482 15.5996 35.7723L27.4123 23.828C28.5429 22.6738 28.4269 21.2083 27.2239 19.9858L22.9699 15.7639L22.9771 15.7791Z" fill="#ADADAD"/>
<path d="M43.5611 10.0836C43.0538 10.1215 42.7422 10.4404 42.7422 10.9796C42.7494 11.5718 43.1045 11.8452 43.6336 11.8908C44.1988 11.83 44.5322 11.4959 44.5032 10.934C44.4742 10.3721 44.1191 10.0456 43.5611 10.0836ZM60.4468 18.1324C61.1715 14.6851 58.2727 11.8832 55.0622 12.8171C52.8881 13.4702 51.6561 15.6494 51.946 18.3602C51.9951 19.1348 52.2292 19.8839 52.6268 20.5389C53.0244 21.1938 53.5727 21.7336 54.2214 22.1085C54.87 22.4835 55.5982 22.6817 56.3391 22.6848C57.0799 22.688 57.8096 22.496 58.4611 22.1265C59.5481 21.5722 60.1714 20.6382 60.3961 19.2563L58.9466 19.279L58.8017 19.6891C58.2074 20.942 57.0624 21.4355 55.613 21.0331C54.381 20.6914 53.6345 19.5144 53.6998 18.1173H60.512L60.4468 18.1324ZM55.9101 14.108C57.5045 13.9865 58.577 14.8901 58.8452 16.6745H53.6635C53.6925 15.285 54.6419 14.2067 55.8376 14.108H55.9101Z" fill="#ADADAD"/>
<path d="M48.9371 10.0991H47.3283V12.8783H45.7122V14.2906H47.2703V15.2018L47.2921 20.6918C47.3065 21.6485 47.6544 22.1573 48.4081 22.2712C49.1618 22.3851 49.9082 22.3623 50.6692 22.3927V20.874C50.3576 20.874 50.0894 20.8512 49.8285 20.8816C49.1401 20.9423 48.8284 20.6538 48.8647 19.9097L48.8719 17.4342V14.2223H50.6837V12.8935H48.8719V10.1295L48.9371 10.0991ZM42.9003 22.3091H44.3497V12.9162H42.9003V22.3091ZM41.0886 19.4389C41.0795 18.9808 40.9343 18.5372 40.6732 18.1697C40.4121 17.8022 40.0481 17.5292 39.6319 17.3887C38.9217 17.1001 38.168 16.9635 37.436 16.7281C36.7041 16.4927 36.0881 16.3636 35.4938 15.9687C34.7836 15.5739 34.8271 14.6779 35.5663 14.321C36.6751 13.7895 38.668 13.7515 39.1898 15.5739H40.6682C40.6392 14.5716 40.3059 13.7743 39.5449 13.2959C38.7262 12.8484 37.8122 12.6268 36.8892 12.6521C35.9661 12.6773 35.0644 12.9485 34.2691 13.4402C32.9284 14.5032 33.0153 16.5306 34.4865 17.3735C35.0155 17.6772 35.6315 17.8291 36.2258 18.0113L38.5738 18.6795C39.0811 18.8542 39.4797 19.2111 39.429 19.8793C39.3782 20.5475 38.9362 20.8892 38.3854 21.0031C37.3418 21.2157 37.1389 21.1777 36.0518 20.9803C35.4431 20.8664 35.0155 20.4488 34.8053 19.7958L34.7111 19.3781L33.2617 19.3705C33.2835 20.5399 33.6603 21.4587 34.5879 21.9523C36.291 22.8407 38.3564 22.8255 40.0377 21.8763C40.9219 21.3752 41.2407 20.4868 41.1973 19.4465L41.0886 19.4389ZM101.239 14.3362V12.9542H99.3912V10.1902H97.7752V12.9694H96.2895V14.3817H97.7896V15.3537L97.8621 20.9196C97.8766 21.6789 98.2245 22.2408 98.9492 22.3471C99.6739 22.4534 100.449 22.4382 101.218 22.4686V21.0031C100.826 21.0031 100.493 20.9955 100.145 21.0031C99.6666 21.0107 99.3985 20.7753 99.3985 20.2665V14.3362H101.232H101.239Z" fill="#ADADAD"/>
<path d="M77.0763 12.6654C74.4311 12.4604 72.5107 14.2752 72.2933 17.1759C72.0759 20.2511 73.7137 22.3545 76.5183 22.5823C77.1228 22.669 77.738 22.6191 78.3226 22.436C78.9072 22.2529 79.4476 21.9409 79.9076 21.5208C80.3675 21.1007 80.7363 20.5824 80.9892 20.0006C81.2421 19.4188 81.3733 18.7871 81.3738 18.1478C81.6058 14.9738 79.9679 12.8856 77.0691 12.6654H77.0763ZM76.3154 21.0181C74.721 20.7371 73.8224 19.1729 73.9963 16.9405C74.1413 15.2396 75.2863 14.0322 76.7864 14.017C78.5475 14.0019 79.6853 15.3838 79.6853 17.5555C79.678 19.8943 78.2576 21.3522 76.3154 21.0181V21.0181ZM84.0915 10.0078C83.548 9.97741 83.1856 10.2508 83.1494 10.7671C83.1131 11.2835 83.4538 11.6479 84.0045 11.7391C84.5118 11.6935 84.8959 11.4049 84.9104 10.843C84.9207 10.7259 84.9071 10.6077 84.8708 10.4964C84.8344 10.385 84.776 10.283 84.6993 10.197C84.6227 10.111 84.5296 10.0429 84.4261 9.99717C84.3226 9.95148 84.211 9.92922 84.0987 9.93185L84.0915 10.0078ZM68.8871 13.197C67.3508 12.2858 65.2346 12.4376 63.6692 13.8044V12.9312H62.1836V25.9537H63.72V21.299C64.34 21.906 65.1093 22.3198 65.9413 22.4942C66.7734 22.6686 67.6354 22.5965 68.4306 22.2861C70.0757 21.7546 70.7496 20.2511 70.996 18.5351C71.3077 16.3102 70.4525 14.1461 68.8219 13.2197L68.8871 13.197ZM69.3654 17.7226C69.3318 18.2354 69.2419 18.7424 69.0973 19.2336C68.735 20.4486 67.8943 21.1016 66.7058 21.1547C65.4738 21.2079 64.5027 20.6232 64.0461 19.4842C63.792 18.8948 63.6606 18.2554 63.6606 17.6087C63.6606 16.9619 63.792 16.3226 64.0461 15.7331C64.5027 14.6321 65.3288 14.0854 66.4811 14.093C68.2566 14.093 69.4959 15.642 69.3582 17.7074L69.3654 17.7226ZM94.8317 15.2927C94.7737 13.7741 93.8026 12.878 92.3676 12.6958C90.9327 12.5136 89.6138 12.8249 88.6137 14.1841V12.9236H87.186V22.3089H88.7369V21.337L88.7803 16.538C88.8818 14.6777 90.3747 13.7741 92.1285 14.26C92.7445 14.4119 93.1576 14.8827 93.2445 15.5661C93.317 16.0748 93.3315 16.5912 93.3315 17.1075L93.3388 22.3925H94.7882L94.7664 15.3535L94.8317 15.2927Z" fill="#ADADAD"/>
<path d="M83.2812 22.3089H84.7597V12.9312H83.2812V22.3089Z" fill="#ADADAD"/>
</svg>
