<svg width="120" height="36" viewBox="0 0 120 36" fill="none" xmlns="http://www.w3.org/2000/svg">
<g clip-path="url(#clip0_405_7703)">
<path d="M120.193 5.60726C120.18 5.55637 120.166 5.50548 120.149 5.45459C109.554 5.45968 98.9641 5.45459 88.3741 5.45968C88.3472 5.4953 88.3293 5.53093 88.3249 5.57673C88.3249 14.9254 88.3249 24.2688 88.3203 33.6175C88.3874 34.1162 88.6289 34.5691 88.951 34.9101C88.9644 34.9152 88.9957 34.9202 89.0091 34.9254C89.1746 35.1237 89.4116 35.2206 89.6352 35.3121C89.8007 35.302 89.9617 35.3834 90.1271 35.363H103.275C103.4 35.3579 103.53 35.3834 103.651 35.3274C103.655 35.3072 103.66 35.2715 103.664 35.2511C103.669 35.2257 103.673 35.1697 103.678 35.1392C103.959 33.3479 104.232 31.5514 104.532 29.7601L104.559 29.5311C103.342 29.5259 102.121 29.5311 100.905 29.5259C100.61 29.5158 100.306 29.5259 100.011 29.4851C99.5053 29.4597 98.9955 29.4801 98.4901 29.4241C97.864 29.4241 97.2424 29.3579 96.6163 29.3579C96.1244 29.3019 95.6279 29.3223 95.1315 29.2969C94.8096 29.2512 94.4786 29.2715 94.1522 29.2561C93.6201 29.19 93.0789 29.2359 92.5467 29.1697C91.9833 29.1749 91.4198 29.1188 90.8563 29.1035C90.8608 29.0984 90.8652 29.078 90.8652 29.0729C91.0531 29.078 91.2364 29.0628 91.4242 29.0577C91.8401 28.9966 92.2605 29.0374 92.6764 28.9711C93.1102 28.9711 93.5396 28.905 93.9734 28.905C94.358 28.8439 94.747 28.8796 95.1315 28.8185C95.5833 28.8185 96.026 28.7524 96.4777 28.7472C96.8489 28.6912 97.2246 28.7218 97.5958 28.6658C98.0296 28.6709 98.4589 28.5946 98.8927 28.5997C99.3175 28.5436 99.7513 28.5588 100.176 28.5079C100.136 28.3198 100.105 28.1314 100.069 27.943C100.038 27.8261 99.9123 27.8515 99.8318 27.8362C98.8614 27.6783 97.8954 27.5207 96.9294 27.368C96.992 27.312 97.077 27.3374 97.1486 27.3273C97.8999 27.2611 98.6467 27.1847 99.398 27.1237C99.568 27.1136 99.7335 27.0779 99.9034 27.0728C99.8274 26.8082 99.7826 26.5181 99.6798 26.2739C98.0744 25.994 96.4688 25.7446 94.8678 25.4443C95.2837 25.368 95.7041 25.3324 96.12 25.2815L96.1557 25.2662C97.484 25.1083 98.8167 24.9302 100.145 24.7827C101.831 24.7726 103.512 24.7775 105.198 24.7827C105.252 24.7726 105.346 24.803 105.355 24.7165C105.494 23.8921 105.628 23.0678 105.766 22.2432C105.959 21.0983 106.263 19.9685 106.732 18.9252C107.47 17.2458 108.637 15.8209 110.059 14.8744C111.388 13.9889 112.926 13.5614 114.456 13.48C114.952 13.4291 115.453 13.4443 115.945 13.5156C116.267 13.6021 116.598 13.7039 116.853 13.9532C117.063 14.1466 117.188 14.4316 117.282 14.7166C117.488 15.3934 117.604 16.0957 117.702 16.8031C117.707 17.0881 117.752 17.4087 117.617 17.6683C117.492 17.9227 117.242 18.0449 117.005 18.1212C116.142 18.3756 115.238 18.1364 114.375 18.3756C113.664 18.5487 113.002 18.9965 112.55 19.6428C112.018 20.396 111.737 21.3322 111.58 22.2688C111.459 23.1034 111.307 23.9379 111.186 24.7776C112.036 24.7828 112.89 24.7726 113.745 24.7828C114.084 24.7828 114.433 24.9965 114.572 25.3629C114.751 25.8311 114.711 26.3604 114.652 26.854C114.581 27.4087 114.465 27.9583 114.245 28.4672C114.062 28.8998 113.758 29.2968 113.342 29.4495C113.127 29.5462 112.895 29.5258 112.667 29.5258C111.915 29.5258 111.164 29.5359 110.413 29.5258C110.292 30.1518 110.212 30.793 110.104 31.4291C109.908 32.6657 109.715 33.9074 109.518 35.1492C109.514 35.19 109.509 35.2765 109.509 35.3223C109.863 35.3426 110.216 35.3223 110.569 35.3324C113.19 35.3324 115.815 35.3272 118.44 35.3324C118.722 35.3426 119.008 35.2663 119.254 35.1085C119.402 35.0474 119.491 34.8998 119.621 34.8184C119.746 34.737 119.782 34.5692 119.889 34.4622C120.006 34.2281 120.126 33.9839 120.135 33.709C120.149 33.709 120.184 33.7039 120.202 33.6988C120.189 24.3351 120.202 14.9712 120.193 5.60726Z" fill="url(#paint0_linear_405_7703)" stroke="#ADADAD" stroke-width="0.094"/>
<path d="M92.2757 0.0811208C92.6558 -0.0562842 93.0538 0.0353192 93.443 0.00478472C100.746 0.00987379 108.049 0.00478472 115.352 0.00478472C115.786 -0.0155716 116.166 0.264328 116.568 0.406822C116.89 0.554405 117.226 0.671453 117.548 0.829215C117.615 0.859749 117.664 0.925907 117.713 0.981887C117.709 1.65365 117.713 2.33049 117.713 3.00734C117.718 3.18546 117.691 3.36866 117.744 3.54169C117.838 3.55696 117.887 3.63838 117.95 3.70454C118.245 3.85721 118.496 4.10658 118.764 4.31014C119.167 4.63584 119.596 4.92083 119.989 5.25671C120.007 5.38903 119.994 5.52643 119.958 5.64857C119.918 5.79106 119.945 5.94374 119.931 6.08623C109.337 6.09132 98.7468 6.08623 88.1568 6.09132C88.1344 5.92338 88.1747 5.75544 88.112 5.59768C88.1031 5.46536 88.0628 5.29233 88.1747 5.20073C88.6219 4.84449 89.0959 4.52388 89.5341 4.14729C89.807 3.94882 90.0707 3.74525 90.3346 3.54169C90.3883 3.43991 90.3704 3.31268 90.3704 3.20072C90.3704 2.46281 90.3704 1.72489 90.3748 0.986976C90.5269 0.763057 90.7908 0.737611 91.0009 0.625652C91.426 0.442445 91.8553 0.264328 92.2757 0.0811208V0.0811208ZM92.3025 0.167635C91.7301 0.417 91.1532 0.656186 90.5807 0.905551C90.5047 0.920818 90.4644 0.997154 90.4242 1.06331C90.4287 1.10402 90.4332 1.17527 90.4332 1.21598C90.4286 1.82667 90.4332 2.43736 90.4286 3.04805C90.4332 3.20072 90.4152 3.3534 90.4644 3.4908C90.4062 3.55696 90.3437 3.62312 90.2721 3.67401C89.6236 4.15238 88.9975 4.67147 88.3491 5.14475C88.2373 5.22109 88.112 5.32287 88.1478 5.49081C88.1255 5.58241 88.1657 5.65875 88.2507 5.6333C89.6549 5.62312 91.0547 5.64348 92.459 5.61803C94.5475 5.61803 96.6315 5.62312 98.72 5.61803L98.7513 5.60277C98.8452 5.62821 98.9391 5.61803 99.0375 5.61803C102.821 5.61803 106.604 5.62312 110.392 5.61803C111.582 5.62312 112.776 5.61803 113.97 5.61803C115.938 5.61803 117.91 5.63839 119.878 5.62821C119.936 5.61295 119.954 5.56714 119.931 5.48572C119.927 5.40429 119.954 5.29233 119.878 5.24144C119.565 5.0735 119.296 4.81396 118.997 4.6104C118.889 4.50862 118.751 4.45264 118.67 4.31523C118.362 4.11676 118.075 3.87248 117.771 3.65365C117.713 3.61294 117.668 3.54678 117.619 3.4908C117.646 3.38393 117.655 3.26688 117.655 3.15492C117.65 2.50861 117.655 1.8623 117.65 1.21598C117.664 1.1142 117.659 0.997154 117.579 0.930996C117.042 0.712166 116.51 0.478069 115.978 0.254149C115.812 0.162546 115.629 0.111655 115.45 0.0811208H92.593C92.4948 0.0862099 92.4009 0.14219 92.3025 0.167635V0.167635Z" fill="#ADADAD" stroke="#F8F3B5" stroke-width="0.094"/>
<path d="M90.4342 1.21558C90.8278 1.40387 91.2481 1.51074 91.6462 1.69395C91.8609 1.79064 91.9279 2.05527 92.0219 2.26901C91.9279 2.37588 91.816 2.4624 91.7042 2.54382C91.2928 2.85935 90.8724 3.16469 90.4655 3.49039C90.4163 3.35299 90.4342 3.20032 90.4297 3.04764C90.4342 2.43695 90.4298 1.82627 90.4342 1.21558V1.21558ZM116.44 1.69395C116.838 1.51583 117.254 1.39369 117.652 1.21558C117.656 1.86189 117.652 2.5082 117.656 3.15451C117.656 3.26647 117.647 3.38352 117.62 3.49039C117.271 3.21558 116.918 2.95604 116.569 2.68632C116.399 2.54382 116.212 2.43695 116.06 2.26393C116.153 2.05018 116.225 1.79064 116.44 1.69395V1.69395Z" fill="#ADADAD" stroke="#ADADAD" stroke-width="0.094"/>
<path d="M97.2591 1.90281C97.7511 1.77049 98.3012 2.26922 98.2609 2.85446C98.2654 3.42953 97.7331 3.89772 97.2457 3.76541C97.049 3.68907 96.861 3.57202 96.7404 3.37355C96.5839 3.10383 96.548 2.7425 96.6733 2.44734C96.7627 2.16235 97.0042 1.96897 97.2591 1.90281V1.90281ZM110.018 2.22342C110.224 1.96388 110.55 1.81629 110.854 1.9079C111.082 1.98423 111.306 2.15217 111.404 2.40663C111.601 2.84429 111.449 3.43462 111.065 3.66363C110.725 3.87737 110.295 3.77559 110.036 3.46515C109.772 3.12418 109.754 2.56439 110.018 2.22342V2.22342Z" fill="#ADADAD" stroke="#ADADAD" stroke-width="0.094"/>
<path d="M91.7022 2.54382C91.814 2.46239 91.9258 2.37588 92.0198 2.26901L92.051 2.30463C92.0823 2.56926 92.06 2.83898 92.0689 3.10361C92.0555 3.89751 92.0823 4.69649 92.051 5.49039C90.7496 5.49039 89.4483 5.48021 88.1469 5.49039C88.1111 5.32245 88.2363 5.22067 88.3481 5.14433C88.9966 4.67105 89.6227 4.15196 90.2711 3.67359C90.3428 3.6227 90.4053 3.55654 90.4634 3.49038C90.8704 3.16468 91.2908 2.85934 91.7022 2.54382V2.54382ZM116.013 2.44203C116.013 2.37588 116.026 2.3199 116.057 2.26392C116.209 2.43694 116.397 2.54382 116.567 2.68631C116.916 2.95603 117.269 3.21557 117.618 3.49038C117.667 3.54636 117.712 3.61252 117.77 3.65323C118.074 3.87206 118.36 4.11634 118.669 4.31481C118.75 4.45222 118.888 4.5082 118.996 4.60998C119.295 4.81354 119.563 5.07308 119.877 5.24102C119.953 5.29191 119.926 5.40387 119.93 5.4853C118.629 5.49039 117.332 5.48021 116.03 5.49039C116.008 5.28683 116.022 5.08326 116.017 4.88479C116.017 4.07054 116.008 3.25629 116.013 2.44203V2.44203Z" fill="#ADADAD" stroke="#F7E62D" stroke-width="0.094"/>
<path d="M119.93 5.48541C118.629 5.4905 117.332 5.48032 116.031 5.4905C116.008 5.28693 116.022 5.08337 116.017 4.8849C116.017 4.07064 116.008 3.25639 116.013 2.44214C116.013 2.37598 116.026 2.32 116.057 2.26402C116.151 2.05028 116.223 1.79074 116.437 1.69405C116.836 1.51593 117.251 1.39379 117.65 1.21567C117.663 1.11389 117.658 0.996844 117.578 0.930686C117.041 0.711856 116.509 0.477758 115.977 0.253839C115.811 0.162236 115.628 0.111345 115.449 0.0808105H92.5921C92.4937 0.0858996 92.3998 0.141879 92.3014 0.167325C91.729 0.416689 91.1521 0.655876 90.5796 0.905241C90.5036 0.920508 90.4633 0.996844 90.4231 1.063C90.4276 1.10371 90.4321 1.17496 90.4321 1.21567C90.8256 1.40397 91.2459 1.51084 91.644 1.69405C91.8587 1.79074 91.9258 2.05537 92.0197 2.26911L92.0509 2.30474C92.0822 2.56937 92.0598 2.83909 92.0688 3.10372C92.0554 3.89762 92.0822 4.6966 92.0509 5.4905C90.7495 5.4905 89.4482 5.48032 88.1467 5.4905C88.1244 5.5821 88.1646 5.65844 88.2496 5.63299C89.6538 5.62281 91.0536 5.64317 92.4579 5.61772C94.5464 5.61772 96.6304 5.62281 98.7189 5.61772L98.7502 5.60246C98.8441 5.6279 98.938 5.61772 99.0364 5.61772C102.82 5.61772 106.603 5.62281 110.391 5.61772C111.581 5.62281 112.775 5.61772 113.969 5.61772C115.936 5.61772 117.909 5.63808 119.876 5.6279C119.935 5.61263 119.953 5.56683 119.93 5.48541V5.48541ZM96.6708 2.44723C96.7602 2.16224 97.0016 1.96886 97.2566 1.9027C97.7486 1.77038 98.2986 2.26911 98.2584 2.85436C98.2629 3.42942 97.7306 3.89762 97.2432 3.7653C97.0464 3.68896 96.8585 3.57192 96.7379 3.37344C96.5813 3.10372 96.5456 2.7424 96.6708 2.44723ZM110.016 2.22331C110.221 1.96377 110.548 1.81618 110.852 1.90779C111.08 1.98412 111.304 2.15206 111.402 2.40652C111.599 2.84418 111.447 3.43451 111.062 3.66352C110.722 3.87726 110.293 3.77548 110.033 3.46504C109.77 3.12408 109.752 2.56428 110.016 2.22331Z" fill="url(#paint1_radial_405_7703)" stroke="#ADADAD" stroke-width="0.094"/>
<path d="M111.158 7.72183C111.221 7.73709 110.832 7.29709 110.908 7.27674C110.98 7.28691 111.251 7.04727 111.579 7.24279C111.907 7.43831 111.826 7.89587 111.789 8.06554C111.744 8.26748 111.631 8.39633 111.542 8.49811C111.493 8.54391 111.382 8.61516 111.315 8.61007C111.356 8.36071 111.226 8.32 111.217 8.06554L111.158 7.72183Z" fill="url(#paint2_linear_405_7703)" stroke="#FCD109" stroke-width="0.094"/>
<path d="M96.8624 7.9977C96.8534 8.25216 96.7236 8.29287 96.764 8.54223C96.6969 8.54732 96.5865 8.47608 96.5374 8.43027C96.4479 8.32849 96.3351 8.19964 96.2907 7.9977C96.2535 7.82808 96.1722 7.37052 96.5001 7.17495C96.828 6.97938 97.0994 7.21902 97.1709 7.2089C97.247 7.22925 96.8585 7.66925 96.921 7.65399L96.8624 7.9977Z" fill="url(#paint3_linear_405_7703)" stroke="#FCD109" stroke-width="0.094"/>
<path d="M110.573 10.982C110.64 10.9155 110.685 10.9155 110.774 10.9155C110.238 12.2387 109.612 13.5618 108.67 14.592C108.569 14.6943 108.463 14.7891 108.352 14.8759C108.244 14.9656 108.138 15.0498 108.033 15.1355C107.93 15.2168 107.828 15.2985 107.729 15.3838C107.474 15.5415 107.25 15.7604 106.968 15.8571C106.454 16.137 105.9 16.3253 105.341 16.4576C105.122 16.4983 104.898 16.5594 104.674 16.5645C104.397 16.6561 104.102 16.5899 103.82 16.6103C103.664 16.6408 103.525 16.539 103.373 16.5594C103.241 16.5381 103.109 16.5127 102.979 16.483C102.846 16.4521 102.714 16.4165 102.583 16.3762C100.533 15.6484 98.5206 13.8672 97.9343 11.4583C97.9079 11.296 97.8946 11.1314 97.8945 10.9664C97.9571 11.1089 98.022 11.2504 98.0891 11.3905C98.9231 13.4601 100.578 15.0886 102.533 15.5796C102.691 15.662 102.863 15.6331 103.015 15.7043C103.154 15.7043 103.288 15.6993 103.422 15.7501C103.883 15.7603 104.343 15.7552 104.804 15.7552C104.867 15.7603 104.925 15.7247 104.987 15.7094C105.755 15.6798 106.507 15.4415 107.208 15.0802C107.348 15.008 107.486 14.9308 107.621 14.8493C107.74 14.7782 107.856 14.7012 107.969 14.6184C108.08 14.5372 108.187 14.4506 108.292 14.359C109.12 13.6127 109.835 12.6458 110.321 11.5339C110.413 11.3338 110.498 11.1485 110.573 10.982Z" fill="#ADADAD" stroke="#ADADAD" stroke-width="0.094"/>
<path d="M109.842 15.5059C111.17 14.6204 112.709 14.1929 114.238 14.1115C114.734 14.0606 115.235 14.0759 115.727 14.1471C116.049 14.2336 116.38 14.3354 116.635 14.5848C116.505 14.595 116.38 14.5288 116.251 14.5085C115.884 14.427 115.504 14.4576 115.132 14.4474C114.055 14.4474 112.968 14.5441 111.926 14.88C111.38 15.0683 110.835 15.2871 110.338 15.6128C109.48 16.1522 108.706 16.8647 108.08 17.7197C106.962 19.1803 106.305 21.0326 105.987 22.9207C105.835 23.9334 105.66 24.941 105.522 25.9588C105.298 25.9842 105.07 25.969 104.847 25.969C103.863 25.9639 102.879 25.9588 101.895 25.9487C101.685 25.9588 101.479 25.9029 101.269 25.9181C99.48 25.9282 97.6912 25.913 95.9023 25.913L95.9381 25.8977C97.2663 25.7398 98.599 25.5617 99.9273 25.4142C101.613 25.4041 103.295 25.409 104.981 25.4142C105.034 25.4041 105.128 25.4345 105.137 25.348C105.276 24.5236 105.41 23.6993 105.549 22.8747C105.741 21.7299 106.045 20.6 106.515 19.5568C107.253 17.8774 108.42 16.4524 109.842 15.5059Z" fill="#ADADAD" stroke="#ADADAD" stroke-width="0.094"/>
<path d="M111.928 14.8798C112.97 14.544 114.056 14.4473 115.134 14.4473C115.505 14.4574 115.886 14.4269 116.252 14.5083C116.382 14.5287 116.507 14.5948 116.637 14.5847C116.847 14.7781 116.972 15.063 117.066 15.348C117.272 16.0249 117.388 16.7272 117.487 17.4346C117.491 17.7195 117.536 18.0402 117.402 18.2997C117.276 18.5541 117.026 18.6763 116.789 18.7526C115.926 19.0071 115.022 18.7678 114.159 19.0071C113.448 19.1801 112.786 19.6279 112.335 20.2743C111.803 21.0274 111.521 21.9637 111.364 22.9002C111.244 23.7348 111.091 24.5694 110.971 25.4091C110.917 25.5974 110.886 25.801 110.854 25.9995C111.7 26.0148 112.545 25.9995 113.39 26.0096C113.712 25.9995 114.034 26.0198 114.356 25.9943C114.535 26.4626 114.495 26.9919 114.437 27.4855C114.365 28.0402 114.249 28.5897 114.03 29.0987C113.846 29.5312 113.542 29.9282 113.126 30.0809C112.912 30.1776 112.679 30.1572 112.451 30.1572C111.7 30.1572 110.948 30.1674 110.197 30.1572C110.076 30.7832 109.996 31.4244 109.888 32.0605C109.692 33.2971 109.499 34.5389 109.303 35.7807C109.298 35.8214 109.294 35.9079 109.294 35.9537V35.9588C107.339 35.9588 105.389 35.964 103.435 35.9588C103.44 35.9385 103.444 35.9028 103.449 35.8824C103.453 35.857 103.457 35.801 103.462 35.7705C103.467 35.8113 103.471 35.8876 103.475 35.9232C103.596 35.9385 103.815 36.0097 103.847 35.8113C104.151 33.9385 104.432 32.0555 104.746 30.1827C104.625 30.1521 104.5 30.1521 104.374 30.1776C104.357 30.2488 104.339 30.32 104.316 30.3913L104.343 30.1623C103.127 30.1571 101.906 30.1623 100.689 30.1571C100.394 30.1471 100.09 30.1571 99.795 30.1164C99.2896 30.091 98.7798 30.1113 98.2745 30.0553C97.6484 30.0553 97.0267 29.9892 96.4006 29.9892C95.9087 29.9332 95.4123 29.9535 94.9159 29.9281C94.594 29.8824 94.263 29.9026 93.9366 29.8874C93.4044 29.8212 92.8633 29.8672 92.3311 29.8008C91.7676 29.806 91.2041 29.75 90.6406 29.7347C90.6451 29.7296 90.6496 29.7093 90.6496 29.7042C90.8374 29.7093 91.0208 29.694 91.2086 29.6889C91.6245 29.6279 92.0449 29.6685 92.4608 29.6024C92.8946 29.6024 93.3239 29.5362 93.7577 29.5362C94.1423 29.4752 94.5314 29.5108 94.9159 29.4497C95.3677 29.4497 95.8103 29.3835 96.2621 29.3785C96.6333 29.3225 97.0089 29.3531 97.3801 29.2971C97.8139 29.3022 98.2432 29.2258 98.677 29.2309C99.1019 29.1748 99.5356 29.1901 99.9605 29.1392C99.9203 28.951 99.8889 28.7627 99.8532 28.5743C99.8219 28.4572 99.6967 28.4827 99.6162 28.4675C98.6457 28.3096 97.6798 28.1519 96.7138 27.9992C96.7764 27.9431 96.8614 27.9686 96.9329 27.9585C97.6842 27.8922 98.4311 27.8159 99.1824 27.755C99.3523 27.7448 99.5178 27.7092 99.6877 27.7041C99.6117 27.4394 99.567 27.1494 99.4641 26.9051C97.8587 26.6252 96.2531 26.3758 94.6521 26.0756C95.068 25.9993 95.4884 25.9636 95.9043 25.9127C97.6932 25.9127 99.482 25.928 101.271 25.9178C101.481 25.9026 101.687 25.9585 101.897 25.9484C102.881 25.9585 103.865 25.9637 104.849 25.9687C105.072 25.9687 105.3 25.984 105.524 25.9585C105.663 24.9407 105.837 23.933 105.989 22.9204C106.306 21.0323 106.964 19.18 108.082 17.7194C108.708 16.8644 109.482 16.152 110.34 15.6125C110.836 15.287 111.382 15.0681 111.928 14.8798Z" fill="white" stroke="#ADADAD" stroke-width="0.094"/>
<path d="M110.97 25.4092C111.819 25.4144 112.674 25.4041 113.528 25.4144C113.868 25.4144 114.216 25.6281 114.355 25.9944C114.033 26.0199 113.711 25.9996 113.389 26.0097C112.544 25.9996 111.699 26.0149 110.853 25.9996C110.885 25.8011 110.916 25.5975 110.97 25.4092V25.4092ZM104.373 30.1777C104.498 30.1522 104.624 30.1522 104.744 30.1828C104.431 32.0556 104.15 33.9386 103.846 35.8114C103.814 36.0098 103.595 35.9386 103.474 35.9233C103.47 35.8877 103.465 35.8114 103.461 35.7706C103.743 33.9793 104.015 32.1828 104.315 30.3915C104.337 30.3201 104.355 30.249 104.373 30.1777Z" fill="#ADADAD" stroke="#ADADAD" stroke-width="0.094"/>
<path d="M111.36 7.86438C111.325 7.78805 111.32 7.69644 111.32 7.60993L111.284 7.61502C111.231 7.3911 111.065 7.17736 110.851 7.16718C110.69 7.15191 110.488 7.157 110.394 7.33003C110.216 7.60484 110.3 7.95599 110.292 8.26642C110.292 8.28678 110.296 8.3224 110.296 8.34276C110.296 8.55141 110.274 8.75497 110.242 8.95853C110.216 9.0196 110.202 9.08576 110.202 9.15701C110.126 9.63538 109.974 10.1087 109.768 10.5412C109.728 10.6023 109.697 10.6685 109.683 10.7397C109.549 11.0043 109.388 11.2486 109.223 11.4929C109.196 11.5183 109.174 11.5489 109.151 11.5794C109.035 11.7423 108.91 11.8797 108.78 12.0222C108.749 12.0425 108.726 12.068 108.7 12.0883C108.548 12.2563 108.378 12.414 108.194 12.5412C108.172 12.5565 108.149 12.5769 108.123 12.5972C106.978 13.4573 105.587 13.8135 104.232 13.8288C103.083 13.8695 101.924 13.5896 100.887 13.0247C100.869 13.0145 100.824 12.9942 100.806 12.984C100.632 12.8771 100.453 12.7855 100.292 12.6532C100.256 12.6328 100.22 12.6074 100.18 12.587C100.015 12.4751 99.858 12.3529 99.7104 12.2105C99.6612 12.1596 99.6076 12.1188 99.5539 12.073C99.3929 11.9255 99.2275 11.7677 99.0889 11.5896C99.0531 11.5438 99.0173 11.5031 98.9816 11.4624C98.4942 10.8873 98.1141 10.185 97.9128 9.42164C97.7204 8.81604 97.7474 8.15446 97.725 7.51833C97.5639 7.23843 97.2241 7.08067 96.9558 7.25369C96.844 7.3453 96.8306 7.51324 96.7456 7.63029C96.607 9.30968 97.2375 10.984 98.2438 12.1952C98.2438 12.2359 98.2617 12.2613 98.293 12.2766C98.4719 12.4649 98.6463 12.6583 98.8251 12.8415C98.8564 12.8771 98.8922 12.9127 98.9325 12.9433C99.1114 13.1112 99.3037 13.2639 99.4915 13.4217C99.5273 13.4522 99.563 13.4776 99.6033 13.5031C99.8493 13.6659 100.082 13.8593 100.346 13.9713C100.364 13.9865 100.395 14.012 100.413 14.0222C101.262 14.4853 102.179 14.8008 103.118 14.9026C103.221 14.9026 103.324 14.9127 103.427 14.9382C103.874 14.9687 104.321 14.9535 104.769 14.9433C106.15 14.8059 107.577 14.4242 108.731 13.498L108.744 13.5183C108.78 13.4827 108.811 13.4522 108.847 13.4217C109.031 13.269 109.21 13.1061 109.388 12.9382C109.429 12.9026 109.473 12.8619 109.514 12.8161C109.71 12.5718 109.938 12.3479 110.104 12.068L110.131 12.0832C110.144 12.0578 110.167 12.0069 110.18 11.9814C110.332 11.7473 110.471 11.5031 110.605 11.2588C110.614 11.2435 110.636 11.2181 110.645 11.2028L110.627 11.1825C110.641 11.1621 110.672 11.1214 110.685 11.101C110.931 10.5311 111.15 9.93564 111.227 9.30459C111.258 9.28932 111.276 9.25879 111.276 9.22317C111.28 9.0196 111.343 8.82622 111.325 8.62266C111.365 8.37329 111.369 8.11884 111.36 7.86438V7.86438Z" fill="white" stroke="#ADADAD" stroke-width="0.094"/>
<path d="M21.7068 10.0377C22.3549 9.92638 23.1007 9.85682 23.6509 10.316C23.9933 10.6081 24.1155 11.1368 24.0911 11.61C24.1155 12.3891 23.7977 13.224 23.1864 13.6275C22.6483 13.9615 22.0004 13.9891 21.4011 13.9196C20.9977 13.8641 20.5942 13.6137 20.3863 13.1962C19.9216 11.9857 20.4963 10.2742 21.7068 10.0377ZM2.31431 10.9143C2.35094 10.4968 2.68112 10.1211 3.06013 10.1351C5.88473 10.1351 8.69698 10.149 11.5093 10.1351C11.815 10.1073 12.1451 10.2603 12.2918 10.5664C12.4996 10.9838 12.3162 11.443 12.2918 11.8744C12.2063 12.4587 12.2306 13.2379 11.6316 13.4605C9.57737 13.5301 7.52314 13.4605 5.46891 13.4883C5.2733 14.9631 5.0899 16.4241 4.8942 17.8851C4.8942 17.9408 4.90649 18.0661 4.90649 18.1216C6.41043 18.1077 7.91436 18.1216 9.41829 18.1077C9.83407 18.0799 10.2742 18.4836 10.2375 18.9843C10.2009 19.4992 10.103 20.0001 10.0419 20.5149C9.99292 20.8627 9.74842 21.1828 9.4305 21.2523C7.75533 21.2941 6.0557 21.2106 4.38071 21.2941C4.11162 23.3951 3.79369 25.496 3.51244 27.5971C3.47586 28.0146 3.18231 28.3763 2.81551 28.3901C2.11862 28.4041 1.42158 28.4041 0.724699 28.3901C0.272298 28.4041 -0.0945534 27.8335 0.0276699 27.3465C0.773755 21.8646 1.54403 16.3965 2.31431 10.9143V10.9143ZM14.7372 10.1628C15.3731 10.1073 16.021 10.149 16.6569 10.1351C17.0482 10.1073 17.4395 10.4551 17.4761 10.9143C17.4761 11.276 17.3905 11.6378 17.3539 11.9995C16.8403 15.7285 16.3145 19.4576 15.8009 23.1865C15.7276 23.7848 15.5931 24.4248 15.7521 25.0371C15.9355 25.6492 16.7546 25.3848 16.9503 26.0249C17.0726 26.5397 16.938 27.0823 16.9013 27.6111C16.8647 28.3068 16.1677 28.4598 15.6909 28.6131C14.6517 28.8356 13.3921 28.6686 12.6463 27.6945C12.1083 26.9851 12.0716 25.9831 12.1817 25.0927C12.8297 20.362 13.4777 15.6312 14.1381 10.8864C14.1748 10.5385 14.4193 10.2185 14.7372 10.1628V10.1628ZM39.0084 10.9143C39.0449 10.4968 39.3752 10.1351 39.742 10.1351H41.6005C42.0651 10.1211 42.4443 10.6917 42.3342 11.1925C41.9062 14.2815 41.4661 17.3704 41.0382 20.4592C41.6862 20.3479 42.4199 20.2088 42.8723 19.6105C43.6303 18.6364 44.254 17.5096 44.7185 16.3269C44.8774 15.8677 44.9631 15.1998 45.4889 15.1163C46.1859 15.0885 46.895 15.1024 47.5919 15.1163C48.0688 15.1024 48.4234 15.7146 48.2645 16.2155C48.0811 16.9531 47.7754 17.6348 47.4575 18.2887C46.7483 19.5967 45.9658 20.8906 44.9386 21.9203C45.391 23.4647 45.9658 24.9674 46.4671 26.4841C46.6137 26.985 46.9685 27.5693 46.6383 28.0565C46.2591 28.6408 45.55 28.3485 45.0242 28.418C44.474 28.3485 43.6792 28.6685 43.3735 27.959C42.7988 26.4423 42.322 24.884 41.735 23.3673C41.3927 23.3811 41.0381 23.3952 40.6957 23.3534C40.6714 23.4091 40.6224 23.5203 40.5979 23.5761C40.4144 24.9674 40.2189 26.3589 40.0232 27.7502C39.9498 28.0841 39.7175 28.3764 39.3996 28.4042C38.7516 28.4321 38.0913 28.418 37.431 28.418C37.1497 28.418 36.893 28.2094 36.7707 27.9311C36.6485 27.6527 36.7218 27.3328 36.7586 27.0267C37.5166 21.6559 38.2624 16.285 39.0084 10.9143V10.9143ZM72.9879 12.4309C73.0736 12.0412 73.4036 11.7769 73.7461 11.7908C74.2352 11.8048 74.7365 11.7769 75.2377 11.8048C75.6413 11.8186 75.9592 12.2778 75.9102 12.723C75.8369 13.5162 75.6656 14.3093 75.6168 15.1023C76.0936 15.1023 76.5827 15.0884 77.0596 15.1023C77.4876 15.1023 77.8422 15.6032 77.7688 16.0762C77.7076 16.5077 77.622 16.9252 77.5609 17.3563C77.4997 17.7182 77.2308 18.0104 76.9252 18.066C76.3382 18.1077 75.7636 18.0382 75.1889 18.1077C74.9443 19.9721 74.6753 21.8365 74.4185 23.7012C74.3818 24.1325 74.3574 24.6195 74.5775 24.9952C74.9077 25.4544 75.4822 25.2873 75.947 25.3431C76.3138 25.4682 76.5461 25.9275 76.4849 26.345C76.4237 26.8179 76.4115 27.2911 76.3138 27.7502C76.167 28.2649 75.6413 28.3624 75.2377 28.4876C74.125 28.8216 72.8412 28.8216 71.8509 28.0841C70.9339 27.3744 70.787 25.997 70.8848 24.8282C71.1415 22.5741 71.5452 20.3339 71.7652 18.0659C71.4229 18.0798 71.0071 18.1355 70.7504 17.7876C70.4569 17.4398 70.6037 16.925 70.6526 16.4935C70.726 16.0344 70.7137 15.4361 71.1539 15.1856C71.5084 15.0325 71.912 15.144 72.2911 15.0882C72.5233 14.1979 72.7434 13.3075 72.9879 12.4309V12.4309ZM66.0795 16.939C66.8499 16.0624 67.7791 15.3389 68.8429 14.9772C69.3075 14.7406 69.9066 15.1859 69.8945 15.7703C69.8089 16.5356 69.6499 17.2868 69.5398 18.0382C69.4908 18.4139 69.2097 18.7339 68.8795 18.7757C67.6812 19.0121 66.642 19.8329 65.8105 20.807C65.6027 21.0993 65.297 21.3776 65.2603 21.781C65.0036 23.729 64.7345 25.677 64.4655 27.6249C64.4289 28.0423 64.1109 28.4459 63.7319 28.4181H61.8733C61.4454 28.4459 61.0664 27.959 61.1152 27.4719C61.6532 23.6177 62.1913 19.7775 62.717 15.9232C62.7415 15.5337 62.9861 15.158 63.3406 15.1162C63.793 15.0884 64.2454 15.1023 64.7101 15.1023C65.0769 15.1023 65.4192 15.478 65.4192 15.9094C65.4192 16.5076 65.3703 17.1198 65.3581 17.732C65.6516 17.5235 65.835 17.1895 66.0795 16.939V16.939ZM20.374 15.1719C21.0342 15.0189 21.719 15.1442 22.3792 15.1023C22.7583 15.0468 23.1618 15.325 23.2229 15.7564C23.2719 16.1459 23.1739 16.5216 23.1373 16.8973C22.636 20.4733 22.1346 24.0492 21.6455 27.6251C21.6089 28.0287 21.3155 28.4321 20.9364 28.4181C20.2762 28.4181 19.6159 28.4321 18.9434 28.4043C18.5277 28.3486 18.2219 27.8061 18.3321 27.3468C18.8578 23.6319 19.3592 19.9306 19.885 16.2155C19.9094 15.812 20.0072 15.3389 20.374 15.1719V15.1719ZM59.9414 15.3529C58.1195 14.9632 56.2611 14.6849 54.4147 14.8936C52.764 15.1302 51.1011 15.979 50.0863 17.5235C48.6801 19.5549 48.2032 22.2821 48.5211 24.8145C48.6923 26.025 49.1569 27.2494 50.0251 28.0007C50.8321 28.7104 51.9203 28.8077 52.8986 28.6268C54.2679 28.3207 55.4295 27.3191 56.3833 26.2059C56.4321 26.6789 56.3343 27.152 56.3588 27.6112C56.3833 28.0424 56.7256 28.4459 57.1046 28.4181H58.3519C58.7187 28.4181 59.0244 28.0287 59.0489 27.625C59.5746 23.8543 60.1004 20.0975 60.614 16.3408C60.6872 15.8676 60.3572 15.4085 59.9414 15.3529V15.3529ZM56.5056 21.9064C56.0165 22.9499 55.3317 23.8961 54.5614 24.703C54.1213 25.1204 53.5587 25.5518 52.9597 25.4127C52.3728 25.2736 52.0915 24.5779 51.9571 23.9796C51.6514 22.4212 51.9326 20.7236 52.7029 19.374C53.0452 18.7478 53.5955 18.2748 54.2313 18.0799C55.1238 17.8295 56.0655 17.9547 56.9336 18.233L56.9825 18.2887C56.8725 19.4992 56.6645 20.6958 56.5056 21.9064V21.9064ZM35.9394 19.8193C35.9271 18.4278 35.597 16.9669 34.7411 15.9233C34.1542 15.1859 33.2738 14.8102 32.4179 14.824C30.9995 14.7685 29.6668 15.5616 28.6275 16.619C28.3951 16.8278 28.2362 17.1339 27.9795 17.3008C27.9795 16.8415 28.0161 16.3824 28.0038 15.9094C28.0161 15.478 27.6614 15.1023 27.2946 15.1023H26.0474C25.6562 15.1023 25.3383 15.492 25.3138 15.9232C24.5435 21.4889 23.761 27.0545 22.9907 32.6202C22.8807 33.1349 23.272 33.6638 23.7366 33.6498C24.4213 33.6359 25.1183 33.7055 25.7908 33.594C26.3288 33.4271 26.3165 32.7174 26.4021 32.2027C26.5977 30.9782 26.7323 29.7538 26.8545 28.5154C29.2633 29.0441 32.0634 28.6825 33.8608 26.6092C35.328 24.7866 36.0127 22.2681 35.9394 19.8193V19.8193ZM32.5157 21.2245C32.4424 22.5046 32.0389 23.7987 31.2564 24.7308C30.2416 25.8301 28.7008 25.677 27.4536 25.3014C27.4293 25.2596 27.3925 25.1761 27.3803 25.1345C27.5759 23.9239 27.6737 22.6994 27.9183 21.5029C28.6031 20.2229 29.4344 18.9287 30.6205 18.2192C31.0607 17.9827 31.6598 18.0383 31.9777 18.4975C32.5157 19.2627 32.5646 20.2924 32.5157 21.2245V21.2245Z" fill="#ADADAD"/>
</g>
<defs>
<linearGradient id="paint0_linear_405_7703" x1="104.261" y1="5.45454" x2="104.261" y2="35.3663" gradientUnits="userSpaceOnUse">
<stop stop-color="#ADADAD"/>
<stop offset="1" stop-color="#ADADAD"/>
</linearGradient>
<radialGradient id="paint1_radial_405_7703" cx="0" cy="0" r="1" gradientUnits="userSpaceOnUse" gradientTransform="translate(103.906 19.7286) scale(21.3804 24.3298)">
<stop offset="0.596" stop-color="#ADADAD"/>
<stop offset="0.736" stop-color="#ADADAD"/>
<stop offset="1" stop-color="#ADADAD"/>
</radialGradient>
<linearGradient id="paint2_linear_405_7703" x1="111.36" y1="7.16539" x2="111.37" y2="8.58181" gradientUnits="userSpaceOnUse">
<stop stop-color="#FADA1C"/>
<stop offset="1" stop-color="#FDCB06"/>
</linearGradient>
<linearGradient id="paint3_linear_405_7703" x1="96.7192" y1="7.09755" x2="96.7095" y2="8.51397" gradientUnits="userSpaceOnUse">
<stop stop-color="#FADA1C"/>
<stop offset="1" stop-color="#FDCB06"/>
</linearGradient>
<clipPath id="clip0_405_7703">
<rect width="120" height="36" fill="white"/>
</clipPath>
</defs>
</svg>
