<svg width="108" height="36" viewBox="0 0 108 36" fill="none" xmlns="http://www.w3.org/2000/svg">
<path d="M66.8565 28.144C60.5935 33.2505 51.4951 35.9998 43.6965 35.9998C32.7359 35.9998 22.8685 31.5164 15.3943 24.02C14.8045 23.4319 15.3353 22.6454 16.0453 23.1028C24.1093 28.3073 34.0651 31.4161 44.3769 31.4161C51.3203 31.4161 58.942 29.8127 65.9717 26.5056C67.0039 26.0178 67.9203 27.2944 66.8565 28.144Z" fill="#ADADAD"/>
<path d="M69.481 24.8392C68.6826 23.6932 64.1934 24.3164 62.1542 24.5778C61.5349 24.6758 61.4443 24.055 62.0067 23.6279C65.5816 20.8459 71.4612 21.6324 72.1395 22.58C72.8199 23.5299 71.9625 30.0414 68.5941 33.1524C68.0927 33.6425 67.5892 33.3811 67.8252 32.7277C68.5667 30.6645 70.2794 25.9851 69.481 24.8392Z" fill="#ADADAD"/>
<path d="M62.2993 3.92525V1.20862C62.2993 0.783855 62.5942 0.522461 62.9186 0.522461H73.8793C74.2332 0.522461 74.4986 0.81653 74.4986 1.20862V3.53316C74.4986 3.92525 74.2037 4.4177 73.6707 5.23455L67.9976 14.234C70.0958 14.1686 72.3394 14.528 74.2606 15.7066C74.703 15.968 74.8209 16.3601 74.8504 16.7546V19.6346C74.8504 20.0267 74.467 20.4864 74.052 20.2554C70.6836 18.2926 66.1944 18.0942 62.472 20.288C62.0886 20.5168 61.7031 20.0593 61.7031 19.6672V16.9179C61.7031 16.4605 61.7031 15.7067 62.116 15.0532L68.7034 4.57874H62.9713C62.5647 4.61141 62.2993 4.35002 62.2993 3.92525Z" fill="#ADADAD"/>
<path d="M22.2804 20.879H18.9414C18.617 20.8463 18.3811 20.5849 18.3516 20.2582V1.27443C18.3516 0.882338 18.6465 0.588269 19.0025 0.588269H22.1034C22.4278 0.588269 22.6933 0.882339 22.6933 1.20908V3.69699H22.7522C23.5507 1.3071 25.0864 0.193848 27.155 0.193848C29.2532 0.193848 30.553 1.3071 31.4967 3.69699C32.2951 1.3071 34.1258 0.193848 36.106 0.193848C37.4942 0.193848 39.0299 0.847329 39.9758 2.25466C41.0396 3.85803 40.8037 6.18257 40.8037 8.2107V20.1905C40.8037 20.5826 40.5088 20.8766 40.1528 20.8766H36.8138C36.4894 20.844 36.224 20.5499 36.224 20.1905V10.1432C36.224 9.35664 36.2829 7.36118 36.1355 6.57466C35.8995 5.29803 35.1306 4.93861 34.1848 4.93861C33.3864 4.93861 32.5311 5.52675 32.1751 6.50931C31.8212 7.4592 31.8802 9.06257 31.8802 10.1432V20.1905C31.8802 20.5826 31.5852 20.8766 31.2292 20.8766H27.8902C27.5658 20.844 27.3004 20.5499 27.3004 20.1905V10.1432C27.3004 8.01466 27.6248 4.90594 25.2317 4.90594C22.8386 4.90594 22.9271 7.94931 22.9271 10.1432V20.1905C22.9292 20.5522 22.6343 20.879 22.2804 20.879Z" fill="#ADADAD"/>
<path d="M83.9568 0.193848C88.92 0.193848 91.5785 4.90594 91.5785 10.897C91.5785 16.6897 88.6251 21.2711 83.9568 21.2711C79.0822 21.2711 76.4531 16.559 76.4531 10.6986C76.4531 4.77524 79.1412 0.193848 83.9568 0.193848ZM83.9863 4.05641C81.5342 4.05641 81.3868 7.7556 81.3868 10.0778C81.3868 12.4023 81.3573 17.3432 83.9863 17.3432C86.5859 17.3432 86.7038 13.3499 86.7038 10.9273C86.7038 9.32396 86.6449 7.42419 86.2025 5.88617C85.7875 4.5792 85.0502 4.05641 83.9863 4.05641Z" fill="#ADADAD"/>
<path d="M98.0243 20.879H94.7148C94.3904 20.8463 94.125 20.5522 94.125 20.1928V1.20908C94.1545 0.849664 94.4199 0.588269 94.7759 0.588269H97.8769C98.1718 0.588269 98.4077 0.81699 98.4667 1.11106V4.02373H98.5257C99.4715 1.4378 100.771 0.193848 103.076 0.193848C104.582 0.193848 106.029 0.781982 106.975 2.42036C107.862 3.92571 107.862 6.47897 107.862 8.31106V20.2582C107.833 20.5849 107.538 20.8463 107.211 20.8463H103.813C103.518 20.8136 103.253 20.5849 103.223 20.2582V9.94711C103.223 7.8863 103.43 4.84059 101.125 4.84059C100.327 4.84059 99.56 5.42873 99.204 6.34594C98.7321 7.49187 98.6731 8.67048 98.6731 9.94711V20.1578C98.6753 20.5522 98.3782 20.879 98.0243 20.879Z" fill="#ADADAD"/>
<path d="M59.505 17.378C58.8857 16.4281 58.2347 15.6766 58.2347 13.9426V8.18256C58.2347 5.72733 58.3822 3.50314 56.758 1.83209C55.4877 0.457437 53.36 0 51.7359 0C48.5738 0 45.0011 1.3093 44.2616 5.66198C44.1732 6.11942 44.4976 6.38314 44.763 6.44849L47.984 6.84059C48.2789 6.84059 48.5149 6.51384 48.5739 6.15443C48.8393 4.64908 49.9916 3.92791 51.2619 3.92791C51.9423 3.92791 52.7386 4.22198 53.122 4.8778C53.5939 5.63164 53.5349 6.67721 53.5349 7.56175V8.05187C51.6137 8.28059 49.0731 8.44396 47.272 9.3285C45.1738 10.3437 43.7266 12.3719 43.7266 15.3826C43.7266 19.2125 45.9132 21.1426 48.7192 21.1426C51.0828 21.1426 52.3826 20.5218 54.2132 18.4586C54.8031 19.4412 55.0116 19.8986 56.1344 20.9138C56.3704 21.0445 56.6948 21.0445 56.9328 20.8158C57.6133 20.1623 58.8246 18.9837 59.5029 18.3606C59.7725 18.1295 59.7135 17.7048 59.505 17.378ZM52.9472 15.707C52.4163 16.7549 51.5589 17.3757 50.6425 17.3757C49.3723 17.3757 48.6033 16.2951 48.6033 14.6917C48.6033 11.5503 51.1439 10.9599 53.5665 10.9599V11.7464C53.5686 13.2541 53.5981 14.4303 52.9472 15.707Z" fill="#ADADAD"/>
<path d="M15.7489 17.378C15.1296 16.4281 14.4787 15.6766 14.4787 13.9426V8.18256C14.4787 5.72733 14.6261 3.50314 13.0019 1.83209C11.7317 0.457437 9.60399 0 7.9798 0C4.81779 0 1.27449 1.3093 0.505584 5.66198C0.417107 6.11942 0.741523 6.38314 1.00695 6.44849L4.25744 6.84059C4.55236 6.84059 4.7883 6.51384 4.84729 6.15443C5.11272 4.64908 6.26503 3.92791 7.53531 3.92791C8.21574 3.92791 9.01204 4.22198 9.39544 4.8778C9.86732 5.63164 9.80833 6.67721 9.80833 7.56175V8.05187C7.88711 8.28059 5.34655 8.44396 3.54541 9.3285C1.44723 10.3437 0 12.3719 0 15.3826C0 19.2125 2.18665 21.1426 4.99264 21.1426C7.35625 21.1426 8.65602 20.5218 10.4867 18.4586C11.106 19.4412 11.2851 19.8986 12.4079 20.9138C12.6438 21.0445 12.9682 21.0445 13.2063 20.8158C13.8867 20.1623 15.098 18.9837 15.7763 18.3606C16.0144 18.1295 15.9554 17.7048 15.7489 17.378ZM9.18899 15.707C8.65813 16.7549 7.83023 17.3757 6.88437 17.3757C5.61409 17.3757 4.84518 16.2951 4.84518 14.6917C4.84518 11.5503 7.38574 10.9599 9.80833 10.9599V11.7464C9.81044 13.2541 9.83993 14.4303 9.18899 15.707Z" fill="#ADADAD"/>
</svg>
