<svg width="24" height="24" viewBox="0 0 24 24" fill="none" xmlns="http://www.w3.org/2000/svg">
<path d="M2.75555 11.6356C3.15473 9.10053 4.67017 6.84207 6.91314 5.43918C8.47993 4.45941 10.2663 3.96869 12.1084 3.99051L11.4262 3.33377C11.1094 3.0286 11.1094 2.53391 11.4262 2.22888C11.7431 1.92371 12.2569 1.92371 12.5737 2.22888L14.8811 4.45056C15.308 4.73529 15.3389 5.32276 14.9892 5.65967L12.5737 7.98542C12.2569 8.29059 11.7431 8.29059 11.4262 7.98542C11.1094 7.68039 11.1094 7.1857 11.4262 6.88053L12.7667 5.58978C11.0035 5.42682 9.27893 5.82279 7.79708 6.74961C5.94252 7.90958 4.68966 9.77573 4.36005 11.8698C4.29301 12.2956 3.88004 12.5901 3.43617 12.5251C2.99309 12.4604 2.68851 12.0623 2.75555 11.6356ZM14.8076 19.9292C12.7594 20.7013 10.4548 20.5898 8.4842 19.6231C6.90981 18.8509 5.6915 17.6108 4.95652 16.0593L6.78621 16.5313C7.21899 16.643 7.66381 16.3955 7.77981 15.9787C7.89581 15.562 7.63893 15.1336 7.20615 15.0219L3.90571 14.1706C3.42936 14.0477 2.92479 14.3669 2.87567 14.8539L2.02786 17.9001C1.91186 18.317 2.16874 18.7455 2.60151 18.8572C3.03699 18.9695 3.47991 18.7188 3.59512 18.3048L3.84566 17.4048C4.74703 18.953 6.08213 20.1984 7.74764 21.0154C10.0828 22.161 12.8709 22.3372 15.3992 21.3842C15.8163 21.2268 16.0221 20.7737 15.8589 20.3719C15.6955 19.9701 15.2248 19.7721 14.8076 19.9292ZM21.9721 17.9001C21.8563 17.4834 21.4112 17.2359 20.9785 17.3476L20.0441 17.5887C20.9849 16.0634 21.437 14.3282 21.3391 12.5315C21.1988 9.9596 19.9254 7.56687 17.8451 5.96652C17.4949 5.69721 16.9845 5.75214 16.7048 6.08936C16.4251 6.42642 16.4821 6.91806 16.8322 7.18723C18.5506 8.50925 19.6027 10.4869 19.7186 12.6134C19.8113 14.312 19.3054 15.9476 18.2779 17.3362L17.7874 15.5742C17.6715 15.1575 17.2266 14.9102 16.7937 15.0219C16.3609 15.1336 16.104 15.562 16.22 15.9787L17.1044 19.1559C17.235 19.6253 17.7749 19.8821 18.2423 19.6711L21.3983 18.8568C21.8313 18.7453 22.0881 18.317 21.9721 17.9001Z" fill="black"/>
</svg>
