<svg width="99" height="66" viewBox="0 0 99 66" fill="none" xmlns="http://www.w3.org/2000/svg">
<path d="M33 33C33 40.8606 35.8059 48.4631 40.9127 54.4389C46.0195 60.4147 53.0916 64.3714 60.8562 65.5966C68.6207 66.8219 76.5676 65.2353 83.2664 61.1224C89.9652 57.0095 94.9759 50.6405 97.3964 43.1619C99.817 35.6832 99.4885 27.5861 96.4701 20.3281C93.4516 13.0702 87.9415 7.12799 80.9315 3.57129C73.9216 0.0145819 65.8723 -0.923048 58.2325 0.927178C50.5927 2.7774 43.8643 7.29395 39.2584 13.6638L66 33H33Z" fill="#2805FF"/>
<path d="M66 33C66 25.1385 63.1935 17.5353 58.0857 11.5592C52.978 5.58317 45.9046 1.62686 38.139 0.402604C30.3735 -0.82165 22.426 0.76659 15.7274 4.88137C9.02881 8.99616 4.01923 15.3672 1.60059 22.8473C-0.818044 30.3275 -0.486835 38.4254 2.53459 45.683C5.55601 52.9407 11.0691 58.8813 18.0814 62.4353C25.0936 65.9893 33.1443 66.9232 40.7839 65.0688C48.4236 63.2145 55.1502 58.6938 59.7529 52.3205L33 33H66Z" fill="#FB1475"/>
<path d="M33 33C33 39.5268 34.9354 45.907 38.5615 51.3338C42.1876 56.7606 47.3415 60.9903 53.3714 63.488C59.4014 65.9857 66.0366 66.6392 72.438 65.3659C78.8394 64.0926 84.7194 60.9497 89.3345 56.3345L66 33H33Z" fill="#2805FF"/>
</svg>
