<svg width="24" height="24" viewBox="0 0 24 24" fill="none" xmlns="http://www.w3.org/2000/svg">
<path d="M21.5879 2.00175C17.6856 1.93171 13.2351 3.97369 10.4181 7.14129C7.72599 7.19216 5.1047 8.29694 3.17475 10.2289C3.06231 10.3398 3.02232 10.5057 3.07147 10.6558C3.12145 10.8067 3.25139 10.9159 3.40798 10.9384L6.61817 11.3987L6.22169 11.8431C6.07425 12.0082 6.08175 12.2592 6.23834 12.4159L11.5917 17.7748C11.6725 17.8556 11.7791 17.8965 11.8866 17.8965C11.9857 17.8965 12.0848 17.8615 12.164 17.7906L12.6079 17.3937L13.0677 20.6072C13.0902 20.7639 13.2135 20.879 13.3626 20.929C13.4009 20.9415 13.4409 20.9474 13.4817 20.9474C13.6 20.9474 13.7207 20.8957 13.804 20.8131C15.7073 18.9079 16.811 16.2839 16.8618 13.5891C20.0295 10.7633 22.0861 6.31 21.9953 2.40864C21.9894 2.18685 21.8103 2.00758 21.5879 2.00175ZM17.7497 9.19912C17.3441 9.60518 16.811 9.80862 16.2771 9.80862C15.7431 9.80862 15.2101 9.60518 14.8044 9.19912C13.9931 8.38616 13.9931 7.06375 14.8044 6.2508C15.6165 5.43784 16.9376 5.43784 17.7497 6.2508C18.5618 7.06375 18.5618 8.38699 17.7497 9.19912Z" fill="#ffb450"/>
<path d="M4.15089 16.3974C3.30603 17.2423 2.14612 21.0594 2.01663 21.4913C1.97478 21.6303 2.01347 21.7811 2.11533 21.8838C2.19113 21.9596 2.2914 21.9999 2.39484 21.9999C2.43274 21.9999 2.47064 21.9943 2.50854 21.9833C2.94045 21.8538 6.75733 20.6938 7.6022 19.8489C8.55365 18.8974 8.55365 17.3489 7.6022 16.3974C6.64995 15.4459 5.10235 15.4467 4.15089 16.3974Z" fill="#ffb450"/>
</svg>
