<svg width="24" height="24" viewBox="0 0 24 24" fill="none" xmlns="http://www.w3.org/2000/svg">
<path fill-rule="evenodd" clip-rule="evenodd" d="M6.65331 14.5064C7.36502 15.6601 8.33967 16.6348 9.49356 17.3467L5.42846 21.4118C4.64419 22.1961 3.37263 22.1961 2.58836 21.4118C2.58832 21.4117 2.58828 21.4117 2.5882 21.4116C1.80393 20.6274 1.80393 19.3558 2.5882 18.5715L6.65331 14.5064ZM14.0354 2C18.4312 2 22 5.56884 22 9.96463C22 14.3604 18.4312 17.9292 14.0354 17.9292C9.63958 17.9292 6.07078 14.3604 6.07078 9.96463C6.07078 5.56884 9.63958 2 14.0354 2ZM14.0354 4.73923C11.1514 4.73923 8.81001 7.08064 8.81001 9.96463C8.81001 12.8486 11.1514 15.19 14.0354 15.19C16.9194 15.19 19.2608 12.8486 19.2608 9.96463C19.2608 7.08064 16.9194 4.73923 14.0354 4.73923Z" fill="#7e4dca"/>
</svg>
