<svg width="24" height="24" viewBox="0 0 24 24" fill="none" xmlns="http://www.w3.org/2000/svg">
<path d="M21.6878 11.4086C21.6677 11.3951 21.6469 11.3826 21.6254 11.3712L20.206 10.6069L12.3349 14.7743C12.1258 14.8851 11.8754 14.8851 11.6663 14.7743L3.79517 10.6069L2.37578 11.3712C2.03082 11.5544 1.89956 11.9825 2.08267 12.3274C2.09406 12.3489 2.10653 12.3697 2.12005 12.3899L12.0006 17.6209L21.8811 12.3899C22.0987 12.0655 22.0122 11.6262 21.6878 11.4086Z" fill="#7646bf"/>
<path d="M21.9141 15.9467C21.8479 15.8241 21.7474 15.7235 21.6248 15.6574L20.2055 14.8931L12.3343 19.0604C12.1252 19.1712 11.8748 19.1712 11.6657 19.0604L3.79455 14.8931L2.37517 15.6574C2.02798 15.8448 1.89848 16.2781 2.08587 16.6253C2.15204 16.7479 2.25262 16.8484 2.37517 16.9146L11.6614 21.9149C11.8728 22.0287 12.1272 22.0287 12.3386 21.9149L21.6248 16.9146C21.972 16.7272 22.1015 16.2939 21.9141 15.9467Z" fill="#7646bf"/>
<path d="M21.6878 7.12302C21.6677 7.1095 21.6469 7.09703 21.6254 7.08564L12.3392 2.08535C12.1278 1.97155 11.8734 1.97155 11.662 2.08535L2.37578 7.08564C2.03082 7.26876 1.89956 7.69685 2.08267 8.04182C2.09406 8.06325 2.10653 8.08409 2.12005 8.10427L12.0006 13.3353L21.8811 8.10427C22.0987 7.77993 22.0122 7.34062 21.6878 7.12302Z" fill="#7646bf"/>
</svg>
